<svg width="18" height="19" viewBox="0 0 18 19" fill="none" xmlns="http://www.w3.org/2000/svg">
<path d="M13.9219 5V12.3125C13.9219 12.4244 13.8775 12.5317 13.7983 12.6108C13.7192 12.6899 13.6119 12.7344 13.5 12.7344C13.3881 12.7344 13.2808 12.6899 13.2017 12.6108C13.1226 12.5317 13.0782 12.4244 13.0782 12.3125V6.01953L4.79534 14.2953C4.71702 14.3736 4.6108 14.4176 4.50003 14.4176C4.38927 14.4176 4.28304 14.3736 4.20472 14.2953C4.1264 14.217 4.0824 14.1108 4.0824 14C4.0824 13.8892 4.1264 13.783 4.20472 13.7047L12.4805 5.42188H6.18753C6.07564 5.42188 5.96834 5.37743 5.88922 5.29831C5.81011 5.21919 5.76566 5.11189 5.76566 5C5.76566 4.88811 5.81011 4.78081 5.88922 4.70169C5.96834 4.62257 6.07564 4.57813 6.18753 4.57812H13.5C13.6119 4.57813 13.7192 4.62257 13.7983 4.70169C13.8775 4.78081 13.9219 4.88811 13.9219 5Z" fill="#DAC5A7"/>
</svg>
