<svg width="136" height="39" viewBox="0 0 136 39" fill="none" xmlns="http://www.w3.org/2000/svg">
<g clip-path="url(#clip0_28_1610)">
<path d="M118.685 6.06891H120.481L121.828 6.59024L122.726 7.45913L122.95 7.98047V9.71825L121.828 11.8036L120.032 13.7151L119.583 14.2365L121.603 14.4103L122.726 15.2791L123.399 16.8431V19.276L124.746 18.5809L126.317 17.1907L128.113 14.4103L129.684 10.9347H130.582L129.909 13.02L128.562 15.8005L126.766 18.2334L125.644 19.276L123.624 20.3187H123.175L122.726 22.404L121.828 24.4894L120.032 27.2698L117.787 29.7027L115.094 31.7881L111.726 33.5258L109.257 34.3947L108.135 34.5685H105.89L104.543 33.8734L103.421 32.8307L102.972 31.9618V30.7454L103.87 29.1814L105.441 27.6174L107.013 26.4009L110.38 24.6632L115.767 22.404L119.808 20.84L120.032 20.4925V16.8431L119.359 15.6267L118.012 15.4529L115.543 16.4956H114.869L115.094 15.8005L117.563 14.4103L119.134 12.8463L120.032 11.6298L120.256 10.9347V9.71825L119.359 8.67558L118.91 8.5018H117.338L115.543 9.37069L114.196 11.1085L111.502 17.3645L109.706 20.1449L108.135 21.7089L107.013 22.2303H105.441L104.094 21.5352L103.421 20.84L102.747 18.4071L100.952 21.0138L98.4825 23.0992L97.5846 23.4467H95.7888L94.2175 22.404L93.3196 20.6663L92.6461 21.3614L91.2993 23.0992L89.728 24.3156L88.8301 24.6632L86.8098 24.4894L85.6874 23.6205L84.7895 22.0565V20.84L85.6874 18.2334L87.0343 15.1054V13.8889L86.1364 13.5414H83.2182L82.3203 16.3218L80.9735 20.1449L79.6266 22.7516L78.2798 24.6632L76.7084 26.0534L75.8105 26.4009H73.7903L72.4434 25.532L71.77 23.968V22.5778H71.3211L70.8721 23.6205L69.3008 25.7058L67.7295 27.0961L65.9337 27.7912L64.1379 27.6174L63.0155 26.7485L62.1176 25.3583L61.8931 24.4894V22.5778L62.5666 19.9712L63.6889 17.8858L65.0358 15.9743L67.056 14.2365L69.0763 13.02L71.0966 12.3249L71.9945 12.1511H73.7903L76.035 12.8463L76.7084 13.5414V14.2365L75.5861 14.0627L74.4637 13.3676H72.6679L70.6476 14.4103L69.0763 15.8005L67.056 18.5809L65.4847 21.5352L64.8113 23.6205V25.3583L65.4847 26.2272L66.6071 26.4009L67.9539 25.7058L69.3008 24.1418L71.0966 21.3614L73.3413 16.4956L74.4637 15.2791L75.1371 15.1054H77.6063L77.1574 15.9743L75.5861 19.6236L74.9126 21.8827V24.6632L75.1371 25.3583L76.7084 24.8369L78.2798 22.9254L79.6266 20.4925L80.749 17.5383L81.6469 13.7151L82.0958 11.1085L82.3203 7.98047L82.7693 7.11158L84.3406 6.9378L85.4629 7.63291L85.9119 8.32802V9.54447L84.5651 12.1511L89.5035 11.456H90.8503L91.0748 11.9774L90.4014 14.584L88.8301 18.7547L88.3811 20.4925V22.9254L88.8301 23.2729L89.9524 23.0992L91.2993 21.7089L92.6461 19.6236L93.7685 15.9743L95.1154 13.3676L96.6867 11.2822L99.1559 9.37069L102.299 8.15425L103.196 7.98047H105.441L107.461 8.67558L108.135 9.54447V9.89203L106.788 9.71825L106.115 9.19691L104.319 9.02314L102.299 9.89203L100.503 11.456L98.4825 14.0627L96.6867 17.3645L96.0132 19.276V21.0138L96.6867 22.0565L97.5846 22.2303L98.7069 21.7089L100.278 20.3187L102.074 17.712L104.768 11.9774L106.339 10.9347L108.808 10.7609L108.584 11.6298L107.237 14.4103L106.115 18.0596V19.7974L106.339 21.0138L107.686 20.84L109.033 19.4498L110.604 16.8431L113.522 9.89203L114.869 7.98047L116.44 6.76402L118.685 6.06891ZM119.359 21.8827L115.094 23.4467L109.931 25.7058L107.686 27.0961L106.115 28.3125L104.992 30.3978L104.768 32.3094L105.666 33.5258L107.237 33.8734L109.033 33.5258L111.278 32.4832L113.522 31.0929L115.094 29.7027L117.114 27.4436L118.91 24.6632L119.808 22.404V21.8827H119.359Z" fill="#DAC5A7"/>
<path d="M35.4051 0.85553H40.3435L45.0575 1.37686L49.7715 2.24575L53.812 3.28842L54.7099 3.11464L56.2812 2.07198L57.4036 1.72442L58.9749 1.8982L59.6483 2.59331V2.94087H57.8526L56.5057 3.4622L56.0568 3.98353L62.342 4.85243L64.3623 5.0262H68.6273L71.0965 4.50487L72.2189 3.98353L73.3413 2.41953L74.0147 2.59331L73.7902 3.98353L72.8923 5.19998L70.8721 6.24265L69.0763 6.59021H64.8113L58.7505 5.72132L55.1589 5.0262L53.5875 7.63287L52.0162 11.8035L50.8938 15.4529L50.6694 15.8004L56.5057 15.2791L61.4441 14.7578V15.4529L58.9749 16.148L53.5875 17.0169L50.4449 17.3644L48.8736 22.7516L47.3023 26.4009L45.5065 29.1814L43.4862 31.4405L41.4659 33.1782L39.2212 34.7423L36.303 36.1325L33.8338 37.0014L29.1198 38.044L27.773 38.2178H21.9366L18.345 37.5227L14.7535 36.1325L12.5087 34.5685L10.9374 33.0045L9.59054 30.7454L8.91711 28.3125V24.6631L9.81501 22.7516L11.1619 21.3613L12.9577 19.9711L14.3045 19.6236L12.9577 20.84L10.9374 22.9253L10.264 24.1418L10.0395 25.3582V27.2698L10.4884 29.1814L11.6108 31.2667L13.6311 33.1782L15.8758 34.3947L18.1206 35.2636L21.0387 35.9587L22.3856 36.1325H27.9974L32.038 35.2636L36.303 33.5258L38.5477 32.1356L41.017 30.0502L43.4862 27.096L45.7309 23.4467L47.3023 19.9711L48.2001 17.5382L43.9351 18.0596L40.568 18.9284L38.7722 19.9711L37.6498 21.1876L36.9764 21.3613L36.752 20.6662L37.6498 19.1022L38.9967 17.712L41.2414 16.6693L44.3841 15.9742L48.6491 15.6267L50.2204 11.2822L52.2407 6.93776L53.3631 5.0262L53.5875 4.33109L51.7917 4.15731L45.5065 3.11464L42.1393 2.76709H37.2009L33.8338 3.28842L30.9156 4.15731L27.9974 5.72132L25.9772 7.4591L24.4059 9.54443L23.7324 11.2822V13.1938L24.6303 14.584L25.3038 15.1053L26.6506 15.4529H30.0177L32.038 14.7578L34.0583 13.7151L35.4051 12.1511L36.0785 10.5871H36.752L36.5275 12.1511L35.4051 13.8889L34.5072 14.7578L32.038 15.9742L30.4667 16.4956L27.324 16.6693L24.6303 16.148L22.8345 15.1053L21.4877 13.5413L21.0387 12.4987V9.54443L22.1611 7.28532L24.1814 5.0262L26.2017 3.4622L29.1198 2.07198L32.4869 1.20309L35.4051 0.85553Z" fill="#DAC5A7"/>
<path d="M36.303 10.4133L36.752 10.5871L36.5275 12.1511L36.0785 12.6724V11.8036L35.6296 12.1511L35.8541 10.7609L36.303 10.4133Z" fill="#CDCDCD"/>
</g>
<defs>
<clipPath id="clip0_28_1610">
<rect width="134.696" height="37.9487" fill="white" transform="translate(0.688782 0.564087)"/>
</clipPath>
</defs>
</svg>
